<?xml version="1.0" standalone="no"?>
<!DOCTYPE svg PUBLIC "-//W3C//DTD SVG 20010904//EN"
 "http://www.w3.org/TR/2001/REC-SVG-20010904/DTD/svg10.dtd">
<svg version="1.0" xmlns="http://www.w3.org/2000/svg"
 width="1000.000000pt" height="1000.000000pt" viewBox="0 0 1000.000000 1000.000000"
 preserveAspectRatio="xMidYMid meet">
<metadata>
Created by potrace 1.14, written by Peter Selinger 2001-2017
</metadata>
<g transform="translate(0.000000,1000.000000) scale(0.100000,-0.100000)"
fill="#000000" stroke="none">
<path d="M4400 9985 c-25 -7 -99 -25 -165 -40 -66 -14 -149 -33 -184 -42 -36
-8 -73 -17 -83 -19 -10 -2 -26 -6 -35 -8 -25 -6 -240 -55 -483 -110 -113 -26
-230 -53 -260 -61 -30 -8 -66 -16 -80 -19 -93 -18 -596 -138 -602 -144 -3 -4
-9 -56 -13 -117 -3 -60 -8 -132 -10 -160 -2 -27 -7 -88 -10 -135 -3 -47 -8
-107 -10 -135 -2 -27 -7 -90 -10 -140 -4 -49 -8 -108 -10 -130 -2 -22 -6 -87
-10 -145 -4 -58 -8 -121 -10 -140 -2 -19 -6 -82 -10 -140 -4 -58 -8 -127 -11
-155 -2 -27 -6 -81 -9 -120 -2 -38 -7 -104 -10 -145 -9 -109 -13 -173 -21
-280 -12 -180 -22 -328 -29 -410 -4 -54 -12 -167 -20 -285 -4 -57 -11 -157
-20 -275 -2 -30 -7 -93 -10 -140 -3 -47 -8 -107 -10 -135 -2 -27 -7 -88 -10
-135 -3 -47 -7 -110 -10 -140 -2 -30 -7 -93 -10 -140 -3 -47 -8 -110 -10 -140
-2 -30 -6 -95 -10 -145 -3 -49 -8 -112 -10 -140 -3 -27 -7 -88 -10 -135 -3
-47 -7 -105 -10 -130 -2 -25 -7 -94 -10 -153 -4 -60 -8 -116 -10 -125 -1 -9
-6 -71 -10 -137 -3 -66 -8 -133 -10 -150 -2 -16 -7 -77 -10 -135 -4 -58 -8
-121 -10 -140 -1 -19 -6 -80 -9 -135 -4 -55 -9 -120 -11 -145 -4 -54 -15 -202
-20 -285 -8 -109 -16 -229 -20 -275 -2 -25 -6 -88 -10 -140 -3 -52 -8 -115
-10 -140 -2 -25 -7 -83 -10 -130 -12 -168 -16 -226 -20 -280 -2 -30 -7 -98
-10 -150 -4 -52 -8 -111 -10 -130 -2 -19 -6 -82 -10 -140 -3 -58 -8 -121 -10
-140 -2 -20 -7 -81 -10 -135 -3 -55 -7 -118 -10 -140 -2 -22 -7 -83 -10 -135
-7 -105 -12 -182 -20 -280 -11 -144 -15 -208 -20 -280 -3 -41 -7 -106 -10
-145 -3 -38 -8 -99 -10 -135 -3 -36 -7 -99 -10 -140 -3 -41 -8 -105 -11 -141
l-5 -66 43 -12 c41 -12 151 -46 583 -183 105 -33 204 -64 220 -69 17 -5 71
-22 120 -38 124 -40 328 -104 340 -107 6 -1 30 -9 55 -17 66 -22 244 -79 415
-132 83 -26 168 -53 190 -60 22 -8 106 -34 186 -60 l147 -45 368 106 c203 58
423 121 489 139 66 19 570 163 1120 320 550 158 1016 291 1035 297 507 142
1619 462 1629 468 8 4 16 14 17 21 1 8 19 68 39 134 20 66 43 140 50 165 8 25
28 92 45 150 18 58 38 125 45 150 34 117 71 240 122 405 30 99 56 187 58 195
2 8 20 69 40 135 44 144 117 388 152 505 13 47 35 119 49 160 13 41 24 79 24
86 0 6 -46 32 -102 59 -57 27 -186 89 -288 138 -102 49 -212 101 -245 117 -33
15 -118 56 -190 90 -71 34 -175 84 -230 110 -105 50 -270 129 -482 231 -71 34
-168 81 -218 104 -227 108 -426 203 -665 318 -63 30 -164 78 -225 107 -60 29
-159 76 -220 105 -60 29 -159 76 -220 105 -60 29 -153 73 -205 97 -52 25 -99
48 -105 51 -12 7 43 -56 134 -153 36 -39 109 -118 161 -174 126 -137 129 -141
245 -266 55 -59 111 -120 125 -135 24 -26 191 -207 255 -275 17 -18 67 -73
111 -121 45 -49 97 -105 115 -125 19 -19 79 -84 134 -144 55 -60 109 -118 120
-129 11 -12 67 -73 125 -136 58 -63 107 -117 110 -120 3 -3 66 -70 140 -150
203 -220 212 -229 254 -274 88 -93 178 -195 179 -202 1 -4 -11 -11 -28 -16
-31 -9 -398 -106 -425 -113 -8 -2 -69 -18 -135 -35 -66 -18 -127 -34 -135 -36
-8 -2 -73 -19 -145 -38 -435 -116 -672 -178 -686 -181 -9 -2 -146 -38 -305
-80 -632 -168 -1332 -353 -1361 -360 -10 -2 -94 -25 -188 -50 -157 -42 -325
-86 -565 -149 -52 -13 -144 -38 -205 -54 -60 -16 -216 -58 -345 -91 -129 -34
-243 -65 -253 -67 -16 -5 -18 0 -13 43 3 26 8 82 11 123 3 41 8 95 10 120 2
25 7 83 10 130 3 47 8 105 10 130 2 25 7 79 10 120 3 41 8 101 10 132 3 32 7
84 10 115 2 32 7 85 9 118 3 33 8 94 11 135 3 41 8 95 10 120 2 25 7 88 10
140 4 52 9 102 10 110 1 8 6 62 10 120 3 58 8 121 10 140 2 19 6 76 10 125 4
50 8 106 10 125 2 19 6 76 10 125 4 50 8 106 10 125 2 19 6 76 9 125 4 50 9
108 11 130 5 48 13 144 20 240 3 39 7 95 10 125 8 96 15 193 20 260 3 36 7 90
10 120 3 30 7 87 10 125 5 69 11 149 20 249 2 28 7 87 10 131 3 44 8 100 10
125 2 25 7 79 10 120 4 41 8 95 10 120 6 71 16 201 20 250 6 84 16 215 20 250
1 19 6 82 10 140 4 58 8 112 10 120 1 8 6 58 10 110 3 52 8 113 11 135 2 22 6
78 9 125 5 81 9 123 20 255 3 33 8 89 10 125 6 82 15 192 20 250 2 25 7 81 10
125 3 44 7 98 9 120 2 22 7 81 11 130 4 50 8 108 10 130 7 74 17 200 20 250 7
93 17 210 20 245 2 19 7 76 10 125 8 119 10 131 26 127 14 -3 303 -114 344
-132 23 -10 159 -63 313 -121 59 -22 121 -46 137 -54 17 -7 80 -31 140 -55 61
-23 119 -45 130 -50 11 -5 81 -32 155 -60 74 -29 173 -67 220 -86 179 -69
1409 -547 1495 -580 50 -20 104 -42 122 -50 17 -8 34 -14 37 -14 3 0 82 -29
174 -65 342 -134 430 -168 542 -212 63 -25 124 -48 135 -53 11 -4 70 -27 130
-50 61 -23 124 -48 140 -55 17 -7 41 -16 55 -20 14 -4 32 -12 40 -18 37 -25
-64 65 -140 123 -46 36 -165 130 -266 210 -100 80 -197 157 -215 171 -19 15
-127 100 -240 190 -113 90 -220 174 -236 187 -16 12 -43 33 -59 46 -27 23 -86
69 -429 341 -448 355 -828 656 -969 768 -88 70 -174 138 -191 151 -80 63 -672
532 -682 541 -16 13 -2 2 -256 203 -120 94 -224 172 -230 171 -7 -1 -32 -7
-57 -14z"/>
<path d="M5280 9745 c0 -6 246 -202 268 -214 9 -5 42 -12 72 -16 69 -8 108
-14 140 -20 14 -3 40 -7 57 -10 155 -25 387 -81 558 -135 55 -18 111 -35 125
-40 121 -38 408 -159 575 -242 707 -354 1334 -907 1772 -1563 51 -77 97 -151
186 -300 32 -53 201 -398 231 -470 39 -94 136 -355 141 -379 3 -11 13 -47 24
-80 28 -85 73 -254 85 -320 3 -14 7 -34 10 -44 3 -9 7 -28 10 -42 5 -30 25
-137 30 -165 2 -11 7 -40 10 -65 3 -25 8 -56 10 -70 4 -23 14 -103 21 -175 25
-231 25 -808 0 -934 -2 -10 -6 -44 -9 -77 -15 -141 -66 -424 -101 -553 -8 -30
-12 -58 -9 -63 3 -5 33 -22 67 -39 34 -17 70 -38 80 -47 9 -8 19 -13 22 -10
17 17 106 423 120 548 3 30 8 62 10 70 2 8 6 46 10 83 3 37 8 77 10 89 25 126
25 736 0 938 -2 19 -6 62 -10 95 -5 51 -16 125 -41 280 -11 71 -37 196 -56
270 -11 44 -21 87 -23 95 -54 247 -214 669 -375 985 -161 316 -404 686 -585
891 -5 6 -37 42 -70 80 -116 133 -294 313 -424 430 -30 27 -62 56 -71 64 -56
53 -328 264 -395 306 -16 10 -32 21 -35 24 -7 7 -107 72 -188 122 -371 229
-730 386 -1227 538 -42 13 -262 66 -310 76 -22 4 -47 9 -55 11 -8 1 -26 5 -40
7 -14 2 -68 11 -120 20 -124 21 -186 28 -325 41 -127 11 -175 14 -175 10z"/>
<path d="M2085 8773 c-71 -55 -265 -217 -315 -263 -522 -481 -900 -1004 -1174
-1623 -59 -133 -183 -456 -191 -498 -2 -9 -13 -47 -25 -85 -12 -38 -23 -76
-25 -85 -2 -9 -13 -52 -24 -95 -40 -151 -90 -407 -106 -539 -3 -27 -8 -68 -10
-90 -21 -171 -29 -325 -29 -555 -1 -319 24 -605 74 -875 5 -27 12 -61 14 -75
31 -179 129 -521 220 -765 166 -452 452 -946 775 -1340 115 -142 348 -392 355
-384 2 2 7 55 10 118 4 63 9 118 12 122 4 6 -44 68 -76 99 -5 5 -112 129 -164
190 -11 14 -34 43 -50 65 -17 22 -33 42 -36 45 -18 14 -212 301 -280 416 -121
202 -190 340 -321 640 -26 60 -128 348 -145 413 -49 178 -74 280 -97 391 -33
161 -48 251 -61 375 -4 33 -9 74 -11 90 -25 174 -25 728 0 930 2 17 7 59 10
95 4 36 9 74 11 85 1 11 6 38 9 60 6 45 13 87 20 125 12 60 16 77 21 105 5 28
29 132 54 235 6 25 29 106 52 180 159 526 422 1036 757 1470 70 90 71 91 176
215 128 150 435 448 570 552 25 20 46 38 46 42 5 22 20 261 17 261 -2 -1 -30
-22 -63 -47z"/>
</g>
</svg>
